<?xml version="1.0" standalone="no"?>
<!DOCTYPE svg PUBLIC "-//W3C//DTD SVG 20010904//EN"
 "http://www.w3.org/TR/2001/REC-SVG-20010904/DTD/svg10.dtd">
<svg version="1.0" xmlns="http://www.w3.org/2000/svg"
 width="920.000000pt" height="469.000000pt" viewBox="0 0 920.000000 469.000000"
 preserveAspectRatio="xMidYMid meet" fill-opacity="0.5" transform="scale(-1, 1)">

<g transform="translate(0.000000,469.000000) scale(0.100000,-0.100000)"
fill="#000000" stroke="none">
<path d="M2719 4538 c-204 -293 -619 -686 -1044 -990 -242 -174 -360 -298
-447 -473 -120 -240 -130 -491 -32 -785 102 -306 307 -607 610 -899 134 -129
434 -377 434 -359 0 2 -45 50 -101 108 -613 641 -857 1164 -739 1588 78 279
322 516 667 646 98 37 176 90 247 167 178 192 323 522 416 947 10 45 17 82 15
82 -2 0 -14 -15 -26 -32z"/>
<path d="M3284 4137 c-57 -76 -264 -287 -379 -386 -125 -108 -277 -224 -419
-318 l-108 -73 55 0 c63 0 182 -21 246 -44 24 -9 49 -16 55 -16 21 0 180 146
247 226 111 133 195 269 263 424 39 87 89 231 83 236 -2 2 -21 -20 -43 -49z"/>
<path d="M965 3186 c-260 -217 -466 -469 -595 -725 -106 -213 -160 -429 -160
-645 0 -845 746 -1552 1810 -1717 170 -27 575 -37 772 -20 459 40 816 138
1843 509 1173 423 1542 528 2025 578 267 27 607 11 865 -41 447 -90 864 -263
1393 -577 74 -44 135 -78 137 -76 8 8 -162 206 -289 337 -475 485 -1003 779
-1616 900 -325 64 -729 70 -1110 15 -150 -22 -398 -78 -563 -128 -346 -106
-578 -202 -1152 -476 -767 -367 -1059 -479 -1460 -564 -231 -48 -352 -60 -620
-60 -331 -1 -511 26 -775 116 -678 229 -1114 776 -1087 1363 19 398 231 823
598 1197 52 54 93 98 90 98 -3 0 -51 -38 -106 -84z"/>
<path d="M2235 3256 c-279 -44 -525 -205 -633 -415 -68 -131 -77 -173 -76
-366 0 -158 2 -178 31 -286 18 -63 45 -149 62 -191 41 -103 131 -291 137 -286
2 3 -2 30 -10 60 -46 177 -47 346 -4 438 l26 55 -5 -45 c-9 -78 31 -231 75
-288 17 -22 17 -21 14 52 -12 225 134 345 418 346 268 0 576 -123 911 -365
133 -96 215 -133 312 -141 46 -4 77 -3 77 2 0 6 -23 32 -51 59 -113 111 -231
330 -294 546 -106 366 -149 458 -273 591 -124 131 -284 213 -465 237 -96 13
-149 13 -252 -3z m783 -806 c1 -4 -11 -13 -27 -20 -49 -20 -88 10 -133 100
-21 41 -41 91 -44 110 -7 33 -1 29 97 -74 57 -60 105 -112 107 -116z"/>
<path d="M968 2888 c-121 -161 -242 -414 -292 -613 -135 -528 53 -967 557
-1306 102 -68 269 -163 197 -112 -108 78 -160 122 -261 223 -264 263 -400 526
-440 850 -33 274 53 624 224 913 49 83 54 96 15 45z"/>
<path d="M2145 2060 c-81 -27 -148 -79 -185 -142 -86 -151 -51 -297 110 -458
137 -138 360 -283 682 -446 175 -88 224 -106 91 -33 -360 197 -700 462 -776
605 -52 99 -48 190 11 256 111 123 326 111 493 -28 26 -22 78 -65 116 -96 162
-134 370 -225 568 -248 113 -14 202 -8 323 21 105 24 140 42 62 32 -85 -12
-267 -7 -345 10 -201 43 -364 134 -550 307 -187 175 -293 230 -450 237 -71 2
-103 -1 -150 -17z"/>
<path d="M3624 1748 c8 -64 42 -134 77 -160 60 -45 144 -40 261 14 66 30 85
48 52 48 -31 0 -223 69 -303 109 -44 23 -83 41 -87 41 -4 0 -4 -24 0 -52z"/>
</g>
</svg>
